<svg width="34" height="22" viewBox="0 0 34 22" fill="none" xmlns="http://www.w3.org/2000/svg">
<path d="M32.1456 21.0623L32.1457 21.0623C32.2769 20.9713 32.3888 20.8551 32.4747 20.7205L32.768 20.9078L32.4747 20.7205C32.5607 20.5859 32.619 20.4356 32.6463 20.2782C32.6736 20.1208 32.6694 19.9596 32.6339 19.8039L32.9732 19.7265L32.6339 19.8039C32.5983 19.6482 32.5322 19.5011 32.4393 19.3712L32.4378 19.369C31.1307 17.5111 29.3498 16.0372 27.2801 15.1006L26.7754 14.8722L27.2002 14.5167C28.46 13.4622 29.3642 12.0451 29.7897 10.4582C30.2153 8.87142 30.1414 7.19202 29.5782 5.6487C29.015 4.10538 27.9898 2.77313 26.6423 1.83333C25.2948 0.893543 23.6904 0.391882 22.0475 0.396653L22.0459 0.396657C21.3148 0.395439 20.5871 0.496392 19.8839 0.696584L19.8777 0.698363L19.8776 0.698304C19.7215 0.739636 19.5751 0.811626 19.447 0.910082C19.3189 1.00854 19.2116 1.13149 19.1315 1.27179C19.0514 1.41209 19 1.56692 18.9802 1.72728C18.9605 1.88764 18.9729 2.05031 19.0167 2.20584C19.0604 2.36136 19.1347 2.50663 19.2352 2.63317L18.9625 2.84954L19.2352 2.63318C19.3356 2.75972 19.4602 2.86503 19.6017 2.94295L19.4339 3.24783L19.6017 2.94295C19.7433 3.02088 19.8989 3.06987 20.0595 3.08708C20.2202 3.10429 20.3826 3.08937 20.5375 3.04319L20.5415 3.042L20.5415 3.04202C21.0311 2.90233 21.5379 2.83194 22.0471 2.8329M32.1456 21.0623L22.0465 3.18093M32.1456 21.0623L32.1416 21.0652C31.9384 21.2104 31.6948 21.2882 31.445 21.2874C31.2497 21.2863 31.0575 21.2386 30.8842 21.1484C30.711 21.0583 30.5617 20.9283 30.4487 20.7691M32.1456 21.0623L30.1644 20.9699M22.0471 2.8329L22.0465 3.18093M22.0471 2.8329C22.0469 2.8329 22.0467 2.8329 22.0465 2.8329V3.18093M22.0471 2.8329C23.5238 2.83307 24.9399 3.41974 25.984 4.46389C27.0284 5.5082 27.615 6.92458 27.615 8.40145C27.615 9.87833 27.0284 11.2947 25.984 12.339C24.9397 13.3833 23.5234 13.97 22.0465 13.97C21.7234 13.97 21.4136 14.0983 21.1851 14.3268C20.9567 14.5552 20.8284 14.8651 20.8284 15.1881C20.8284 15.5112 20.9567 15.821 21.1851 16.0495C21.4136 16.2779 21.7234 16.4063 22.0465 16.4063H22.0469C23.6943 16.4081 25.3172 16.8053 26.7793 17.5645C28.2412 18.3237 29.4996 19.4226 30.4487 20.7691M22.0465 3.18093C23.4311 3.18093 24.7589 3.73095 25.7379 4.70999C26.717 5.68902 27.267 7.01688 27.267 8.40145C27.267 9.78602 26.717 11.1139 25.7379 12.0929C24.7589 13.072 23.4311 13.622 22.0465 13.622C21.6311 13.622 21.2328 13.787 20.939 14.0807C20.6453 14.3744 20.4803 14.7728 20.4803 15.1881C20.4803 15.6035 20.6453 16.0019 20.939 16.2956C21.2328 16.5893 21.6311 16.7543 22.0465 16.7543C23.6382 16.756 25.2063 17.1398 26.6189 17.8734C28.0315 18.6069 29.2474 19.6688 30.1644 20.9699M30.4487 20.7691C30.4485 20.7689 30.4484 20.7687 30.4483 20.7685L30.1644 20.9699M30.4487 20.7691C30.4487 20.7692 30.4488 20.7693 30.4489 20.7693L30.1644 20.9699M16.5628 14.5172L16.14 14.8729L16.6433 15.1006C18.7129 16.0372 20.4939 17.5111 21.801 19.369L21.806 19.3761L21.8113 19.3829C21.9128 19.513 21.9869 19.6624 22.0289 19.8219C22.071 19.9815 22.0802 20.148 22.056 20.3112C22.0318 20.4744 21.9746 20.6311 21.8881 20.7715C21.8015 20.912 21.6873 21.0335 21.5523 21.1285C21.4174 21.2235 21.2646 21.2901 21.1031 21.3242C20.9417 21.3584 20.775 21.3593 20.6131 21.3271C20.4513 21.2949 20.2977 21.2301 20.1616 21.1367C20.0256 21.0433 19.9099 20.9232 19.8217 20.7838L19.8172 20.7767L19.8124 20.7699C18.8653 19.4208 17.6072 18.3197 16.1447 17.5595C14.6821 16.7993 13.058 16.4025 11.4097 16.4025C9.76134 16.4025 8.13725 16.7993 6.67468 17.5595C5.21212 18.3197 3.95408 19.4208 3.00692 20.7699L3.00614 20.771C2.8948 20.9309 2.74634 21.0614 2.5735 21.1514C2.40066 21.2413 2.20858 21.288 2.01373 21.2874L2.0116 21.2874C1.7617 21.2883 1.51787 21.2105 1.31457 21.0652L1.3129 21.064C1.04938 20.878 0.870407 20.5951 0.815221 20.2773C0.760052 19.9596 0.833103 19.633 1.01835 19.369C2.32545 17.5111 4.1064 16.0372 6.17602 15.1006L6.67933 14.8729L6.25658 14.5172C5.00015 13.4602 4.09913 12.0425 3.67568 10.4562C3.25222 8.86982 3.32681 7.19164 3.88934 5.64912C4.45187 4.10661 5.47512 2.77439 6.82036 1.83306C8.16561 0.891739 9.76779 0.386853 11.4097 0.386853C13.0516 0.386853 14.6537 0.891739 15.999 1.83306C17.3442 2.77439 18.3675 4.10661 18.93 5.64912C19.4925 7.19164 19.5671 8.86982 19.1437 10.4562C18.7202 12.0425 17.8192 13.4602 16.5628 14.5172ZM6.77958 5.30773C6.1677 6.22347 5.84111 7.3001 5.84111 8.40145C5.84111 9.87833 6.4278 11.2947 7.47211 12.339C8.51641 13.3833 9.9328 13.97 11.4097 13.97C12.511 13.97 13.5876 13.6434 14.5034 13.0315C15.4191 12.4197 16.1329 11.55 16.5543 10.5324C16.9758 9.51493 17.0861 8.39528 16.8712 7.31508C16.6564 6.23489 16.126 5.24267 15.3472 4.46389C14.5685 3.68511 13.5762 3.15476 12.496 2.93989C11.4158 2.72503 10.2962 2.83531 9.27867 3.25678C8.26115 3.67825 7.39146 4.39198 6.77958 5.30773Z" fill="#4CAF4F" stroke="#4CAF4F" stroke-width="0.696069"/>
</svg>
