<svg width="30" height="24" viewBox="0 0 30 24" fill="none" xmlns="http://www.w3.org/2000/svg">
<path d="M2.13269 6.63401V6.98205H2.48073H27.5392H27.8873V6.63401V5.06785C27.8873 4.28327 27.5756 3.53081 27.0208 2.97602C26.466 2.42123 25.7136 2.10956 24.929 2.10956H5.09099C4.3064 2.10956 3.55394 2.42123 2.99916 2.97602C2.44437 3.53081 2.13269 4.28327 2.13269 5.06785V6.63401ZM27.8873 8.72222V8.37418H27.5392H2.48073H2.13269V8.72222V18.6412C2.13269 19.4258 2.44437 20.1783 2.99916 20.733C3.55394 21.2878 4.3064 21.5995 5.09099 21.5995H24.929C25.7136 21.5995 26.466 21.2878 27.0208 20.733C27.5756 20.1783 27.8873 19.4258 27.8873 18.6412V8.72222ZM0.740552 5.06785C0.740552 3.91405 1.1989 2.8075 2.01476 1.99163C2.83063 1.17577 3.93718 0.71742 5.09099 0.71742H24.929C26.0828 0.71742 27.1893 1.17577 28.0052 1.99163C28.8211 2.8075 29.2794 3.91405 29.2794 5.06785V18.6412C29.2794 19.795 28.8211 20.9016 28.0052 21.7174C27.1893 22.5333 26.0828 22.9916 24.929 22.9916H5.09099C3.93718 22.9916 2.83063 22.5333 2.01476 21.7174C1.1989 20.9016 0.740552 19.795 0.740552 18.6412V5.06785ZM20.2305 15.3349H23.3628C23.5474 15.3349 23.7245 15.4082 23.855 15.5388C23.9855 15.6693 24.0589 15.8463 24.0589 16.0309C24.0589 16.2156 23.9855 16.3926 23.855 16.5231C23.7245 16.6537 23.5474 16.727 23.3628 16.727H20.2305C20.0459 16.727 19.8688 16.6537 19.7383 16.5231C19.6078 16.3926 19.5344 16.2156 19.5344 16.0309C19.5344 15.8463 19.6078 15.6693 19.7383 15.5388C19.8688 15.4082 20.0459 15.3349 20.2305 15.3349Z" fill="#4CAF4F" stroke="#4CAF4F" stroke-width="0.696069"/>
</svg>
