<svg width="25" height="28" viewBox="0 0 25 28" fill="none" xmlns="http://www.w3.org/2000/svg">
<path d="M23.7673 26.3839V23.5997C23.7673 22.1228 23.1806 20.7064 22.1363 19.6621C21.092 18.6178 19.6756 18.0311 18.1988 18.0311H16.8066C16.4374 18.0311 16.0833 17.8844 15.8222 17.6234C15.5612 17.3623 15.4145 17.0082 15.4145 16.639V9.67827C15.4145 8.93984 15.1211 8.23164 14.599 7.70949C14.0768 7.18734 13.3687 6.894 12.6302 6.894C11.8918 6.894 11.1836 7.18734 10.6614 7.70949C10.1393 8.23164 9.84594 8.93984 9.84594 9.67827V22.2075L6.5048 17.7527C6.24546 17.4069 5.90916 17.1262 5.52255 16.9329C5.13594 16.7396 4.70963 16.639 4.27738 16.639H3.67319C2.46899 16.639 1.4931 17.6149 1.4931 18.8191C1.4931 19.2144 1.6003 19.6028 1.80355 19.9411L5.66952 26.3839M12.6302 2.71758V1.32544V2.71758ZM20.983 11.0704H22.3752H20.983ZM2.88524 11.0704H4.27738H2.88524ZM6.14702 4.58722L5.16278 3.60298L6.14702 4.58722ZM19.1134 4.58722L20.0976 3.60298L19.1134 4.58722Z" fill="#4CAF4F"/>
<path d="M23.7673 26.3839V23.5997C23.7673 22.1228 23.1806 20.7064 22.1363 19.6621C21.092 18.6178 19.6756 18.0311 18.1988 18.0311H16.8066C16.4374 18.0311 16.0833 17.8844 15.8222 17.6234C15.5612 17.3623 15.4145 17.0082 15.4145 16.639V9.67827C15.4145 8.93984 15.1211 8.23164 14.599 7.70949C14.0768 7.18734 13.3687 6.894 12.6302 6.894V6.894C11.8918 6.894 11.1836 7.18734 10.6614 7.70949C10.1393 8.23164 9.84594 8.93984 9.84594 9.67827V22.2075L6.5048 17.7527C6.24546 17.4069 5.90916 17.1262 5.52255 16.9329C5.13594 16.7396 4.70963 16.639 4.27738 16.639H3.67319C2.46899 16.639 1.4931 17.6149 1.4931 18.8191C1.4931 19.2144 1.6003 19.6028 1.80355 19.9411L5.66952 26.3839M12.6302 2.71758V1.32544M20.983 11.0704H22.3752M2.88524 11.0704H4.27738M6.14702 4.58722L5.16278 3.60298M19.1134 4.58722L20.0976 3.60298" stroke="#4CAF4F" stroke-width="1.39214" stroke-linecap="round" stroke-linejoin="round"/>
</svg>
